# xmcd
#
# Track frame offsets: 
#        150
#        19946
#        46714
#        65371
#        82601
#        98566
#        117783
#        150235
#        163239
#        181258
#        208977
#        231704
#
# Disc length: 3387 seconds
#
# Revision: 0
# Processed by: cddbd v1.5.2PL0 Copyright (c) Steve Scherf et al.
# Submitted via: ExactAudioCopyFreeDBPlugin 1.0
#
DISCID=8f0d390c
DTITLE=Nils Lofgren - Blue With Lou
DYEAR=2019
DGENRE=Blues
TTITLE0=Attitude City
TTITLE1=Give
TTITLE2=Talk Thru the Tears
TTITLE3=Pretty Soon
TTITLE4=Rock or Not
TTITLE5=City Lights
TTITLE6=Blue with Lou
TTITLE7=Don't Let Your Guard Down
TTITLE8=Too Blue to Play
TTITLE9=Cut Him Up
TTITLE10=Dear Heartbreaker
TTITLE11=Remember You
EXTD=
EXTT0=
EXTT1=
EXTT2=
EXTT3=
EXTT4=
EXTT5=
EXTT6=
EXTT7=
EXTT8=
EXTT9=
EXTT10=
EXTT11=
PLAYORDER=
